<?xml version="1.0" encoding="UTF-8"?>
<svg id="Camada_1" data-name="Camada 1" xmlns="http://www.w3.org/2000/svg" xmlns:xlink="http://www.w3.org/1999/xlink" viewBox="0 0 61 61">
  <defs>
    <style>
      .cls-1 {
        fill: url(#Gradiente_sem_nome_7);
      }
    </style>
    <linearGradient id="Gradiente_sem_nome_7" data-name="Gradiente sem nome 7" x1="7.16" y1="4.54" x2="53.84" y2="51.22" gradientUnits="userSpaceOnUse">
      <stop offset="0" stop-color="#63c6f1"/>
      <stop offset=".02" stop-color="#62c3ef"/>
      <stop offset=".25" stop-color="#59aade"/>
      <stop offset=".46" stop-color="#549ad3"/>
      <stop offset=".62" stop-color="#5395d0"/>
    </linearGradient>
  </defs>
  <path class="cls-1" d="M24.34,7.99c0-3.54,2.76-6.41,6.16-6.41s6.16,2.88,6.16,6.41c0,3.08-2.4,8.98-6.16,8.98s-6.16-5.9-6.16-8.98ZM59.57,25.36l-3.08,6.16c-.26.52-.78.85-1.37.85h-13.21l-2.19,26.29c-.08.8-.74,1.42-1.54,1.42h-15.39c-.8,0-1.46-.62-1.54-1.42l-2.19-26.29H5.88c-.58,0-1.11-.32-1.37-.85l-3.08-6.16c-.23-.43-.23-.95,0-1.39l3.08-6.16c.26-.52.78-.85,1.37-.85h18.73c1.48,1.8,3.45,3.08,5.89,3.08s4.42-1.28,5.89-3.08h18.73c.58,0,1.11.32,1.37.85l3.08,6.16c.23.43.23.95,0,1.39ZM10.49,24.67c0-.85-.69-1.54-1.54-1.54s-1.54.69-1.54,1.54.69,1.54,1.54,1.54,1.54-.69,1.54-1.54ZM22.8,24.67c0-.85-.69-1.54-1.54-1.54h-6.16c-.85,0-1.54.69-1.54,1.54s.69,1.54,1.54,1.54h6.16c.85,0,1.54-.69,1.54-1.54ZM28.96,24.67c0-.85-.69-1.54-1.54-1.54s-1.54.69-1.54,1.54.69,1.54,1.54,1.54,1.54-.69,1.54-1.54ZM32.04,47.75c0-.85-.69-1.54-1.54-1.54s-1.54.69-1.54,1.54v4.62c0,.85.69,1.54,1.54,1.54s1.54-.69,1.54-1.54v-4.62ZM32.04,41.6c0-.85-.69-1.54-1.54-1.54s-1.54.69-1.54,1.54.69,1.54,1.54,1.54,1.54-.69,1.54-1.54ZM32.04,29.28c0-.85-.69-1.54-1.54-1.54s-1.54.69-1.54,1.54v6.16c0,.85.69,1.54,1.54,1.54s1.54-.69,1.54-1.54v-6.16ZM35.12,24.67c0-.85-.69-1.54-1.54-1.54s-1.54.69-1.54,1.54.69,1.54,1.54,1.54,1.54-.69,1.54-1.54ZM47.43,24.67c0-.85-.69-1.54-1.54-1.54h-6.16c-.85,0-1.54.69-1.54,1.54s.69,1.54,1.54,1.54h6.16c.85,0,1.54-.69,1.54-1.54ZM53.59,24.67c0-.85-.69-1.54-1.54-1.54s-1.54.69-1.54,1.54.69,1.54,1.54,1.54,1.54-.69,1.54-1.54ZM53.59,44.67c0,2-1.29,3.7-3.08,4.33v4.9c0,.85-.69,1.54-1.54,1.54h-4.62c-.85,0-1.54-.69-1.54-1.54s.69-1.54,1.54-1.54h3.08v-3.36c-1.79-.64-3.08-2.33-3.08-4.33s1.29-3.7,3.08-4.33v-3.36c0-.85.69-1.54,1.54-1.54s1.54.69,1.54,1.54v3.36c1.79.64,3.08,2.33,3.08,4.33ZM51.19,44.55c0-1.21-.98-2.19-2.19-2.19s-2.19.98-2.19,2.19.98,2.19,2.19,2.19,2.19-.98,2.19-2.19ZM19.73,6.2c0,.85-.69,1.54-1.54,1.54h-1.82c-.46,1.3-1.49,2.33-2.79,2.79v1.82c0,.85-.69,1.54-1.54,1.54s-1.54-.69-1.54-1.54v-1.82c-1.79-.64-3.08-2.33-3.08-4.33,0-2.55,2.07-4.62,4.62-4.62,2,0,3.7,1.29,4.33,3.08h1.82c.85,0,1.54.69,1.54,1.54ZM14.19,6.29c0-1.21-.98-2.19-2.19-2.19s-2.19.98-2.19,2.19.98,2.19,2.19,2.19,2.19-.98,2.19-2.19ZM42.81,4.66h1.82c.64-1.79,2.33-3.08,4.33-3.08,2.55,0,4.62,2.07,4.62,4.62,0,2-1.29,3.7-3.08,4.33v1.82c0,.85-.69,1.54-1.54,1.54s-1.54-.69-1.54-1.54v-1.82c-1.3-.46-2.33-1.49-2.79-2.79h-1.82c-.85,0-1.54-.69-1.54-1.54s.69-1.54,1.54-1.54ZM49,8.48c1.21,0,2.19-.98,2.19-2.19s-.98-2.19-2.19-2.19-2.19.98-2.19,2.19.98,2.19,2.19,2.19ZM10.49,40.34v-3.36c0-.85.69-1.54,1.54-1.54s1.54.69,1.54,1.54v3.36c1.79.64,3.08,2.33,3.08,4.33s-1.29,3.7-3.08,4.33v3.36s3.08,0,3.08,0c.85,0,1.54.69,1.54,1.54s-.69,1.54-1.54,1.54h-4.62c-.85,0-1.54-.69-1.54-1.54v-4.9c-1.79-.64-3.08-2.33-3.08-4.33s1.29-3.7,3.08-4.33ZM12,46.74c1.21,0,2.19-.98,2.19-2.19s-.98-2.19-2.19-2.19-2.19.98-2.19,2.19.98,2.19,2.19,2.19Z"/>
</svg>